<svg width="275" height="100" viewBox="0 0 275 100" fill="none" xmlns="http://www.w3.org/2000/svg">
<path d="M124.993 49.9986C124.993 36.7382 119.725 24.0208 110.349 14.6442C100.972 5.2677 88.2549 1.7389e-06 74.9945 0C61.7341 -1.73889e-06 49.0168 5.2677 39.6403 14.6442C30.2637 24.0208 24.996 36.7382 24.996 49.9986H40.6207C45.7983 49.9986 49.8361 45.6597 51.7326 40.8418C52.9777 37.6787 54.867 34.7718 57.3172 32.3213C62.0055 27.6331 68.3643 24.9993 74.9945 24.9993C81.6247 24.9993 87.9835 27.6331 92.6718 32.3213C97.3601 37.0096 99.9936 43.3684 99.9936 49.9986H124.993Z" fill="url(#paint0_linear_245_8882)"/>
<path d="M96.1907 69.1352C98.7034 63.069 99.9968 56.5674 99.9968 50.0017H124.993C124.993 77.6151 102.608 100 74.9948 100C70.6704 100 66.4739 99.4511 62.4722 98.4191C64.7364 97.8357 66.9619 97.0928 69.1317 96.1942C75.1978 93.6815 80.7096 89.9988 85.3525 85.3559C89.9953 80.7131 93.6783 75.2013 96.1907 69.1352Z" fill="#4392F9"/>
<path d="M-0.00012207 49.9955C-0.00012301 56.5615 1.29313 63.0631 3.80578 69.1293C6.31846 75.1954 10.0013 80.7072 14.6441 85.35C19.2869 89.9926 24.7987 93.6756 30.8648 96.1883C36.9308 98.701 43.4324 99.9941 49.9985 99.9941C56.5642 99.9941 63.0658 98.701 69.1319 96.1883C75.1981 93.6756 80.7099 89.9926 85.3527 85.35C89.9955 80.7072 93.6782 75.1954 96.1909 69.1293C98.7036 63.0631 99.9971 56.5615 99.9971 49.9955H84.3722C79.1947 49.9955 75.1568 54.3344 73.2604 59.1519C73.2065 59.2892 73.1511 59.4259 73.0947 59.5625C71.8383 62.5954 69.997 65.3515 67.6754 67.6728C65.3542 69.994 62.5981 71.8357 59.5652 73.092C56.5323 74.3484 53.2815 74.9949 49.9985 74.9949C46.7154 74.9949 43.4647 74.3484 40.4317 73.092C37.3985 71.8357 34.6428 69.994 32.3212 67.6728C29.9998 65.3515 28.1584 62.5954 26.9021 59.5625C25.6458 56.5293 24.9991 53.2785 24.9991 49.9955H-0.00012207Z" fill="url(#paint1_linear_245_8882)"/>
<path d="M0.00463867 49.9986C0.00463867 22.385 22.3897 0 50.003 0C54.3264 0 58.5215 0.548716 62.523 1.58035C53.937 3.79217 46.0167 8.26832 39.6404 14.6443C30.2639 24.0207 24.9963 36.7382 24.9963 49.9986H0.00463867Z" fill="#F83758"/>
<path d="M155.47 64V62.54L158.85 61.76V35.72L155.47 34.98V33.54H169.37V34.98L165.65 35.76V61.74H175.49C176.276 60.6467 176.95 59.5467 177.51 58.44C178.083 57.32 178.616 56.0867 179.11 54.74H181.17L179.49 64H155.47ZM194.186 64.42C191.773 64.42 189.719 63.9267 188.026 62.94C186.346 61.9533 185.066 60.6333 184.186 58.98C183.319 57.3267 182.886 55.5067 182.886 53.52C182.886 51.52 183.319 49.7 184.186 48.06C185.066 46.4067 186.346 45.0867 188.026 44.1C189.719 43.1133 191.773 42.62 194.186 42.62C196.599 42.62 198.639 43.1133 200.306 44.1C201.986 45.0867 203.266 46.4067 204.146 48.06C205.026 49.7 205.466 51.52 205.466 53.52C205.466 55.5067 205.026 57.3267 204.146 58.98C203.266 60.6333 201.986 61.9533 200.306 62.94C198.639 63.9267 196.599 64.42 194.186 64.42ZM194.186 62.38C195.146 62.38 195.926 62.1 196.526 61.54C197.139 60.9667 197.606 60.2267 197.926 59.32C198.259 58.4133 198.486 57.4533 198.606 56.44C198.739 55.4133 198.806 54.44 198.806 53.52C198.806 52.6133 198.746 51.6467 198.626 50.62C198.506 49.5933 198.279 48.6333 197.946 47.74C197.626 46.8333 197.159 46.1 196.546 45.54C195.946 44.9667 195.159 44.68 194.186 44.68C193.213 44.68 192.419 44.9667 191.806 45.54C191.193 46.1 190.719 46.8333 190.386 47.74C190.066 48.6333 189.846 49.5933 189.726 50.62C189.606 51.6467 189.546 52.6133 189.546 53.52C189.546 54.44 189.606 55.4133 189.726 56.44C189.846 57.4533 190.066 58.4133 190.386 59.32C190.719 60.2267 191.193 60.9667 191.806 61.54C192.419 62.1 193.213 62.38 194.186 62.38ZM222.956 44.1C223.222 43.3667 223.562 42.6333 223.976 41.9C224.402 41.1667 224.922 40.5533 225.536 40.06C226.162 39.5667 226.909 39.32 227.776 39.32C228.589 39.32 229.262 39.5333 229.796 39.96C230.342 40.3733 230.616 40.94 230.616 41.66C230.616 42.2333 230.422 42.76 230.036 43.24C229.662 43.72 229.122 43.96 228.416 43.96C227.976 43.96 227.629 43.8733 227.376 43.7C227.122 43.5267 226.889 43.3533 226.676 43.18C226.462 43.0067 226.182 42.92 225.836 42.92C225.342 42.92 224.996 43.1267 224.796 43.54C224.596 43.9533 224.442 44.4333 224.336 44.98L222.956 44.1ZM218.016 55.68C218.762 55.68 219.336 55.3733 219.736 54.76C220.149 54.1333 220.436 53.3733 220.596 52.48C220.769 51.5733 220.856 50.6933 220.856 49.84C220.856 49.3067 220.822 48.7267 220.756 48.1C220.689 47.4733 220.556 46.8733 220.356 46.3C220.169 45.7267 219.902 45.26 219.556 44.9C219.209 44.5267 218.756 44.34 218.196 44.34C217.622 44.34 217.149 44.54 216.776 44.94C216.402 45.34 216.109 45.8533 215.896 46.48C215.682 47.1067 215.529 47.7667 215.436 48.46C215.356 49.14 215.316 49.76 215.316 50.32C215.316 51.0267 215.389 51.8 215.536 52.64C215.682 53.48 215.949 54.2 216.336 54.8C216.722 55.3867 217.282 55.68 218.016 55.68ZM217.996 57.46C216.462 57.46 215.429 57.6067 214.896 57.9C214.362 58.18 214.096 58.5333 214.096 58.96C214.096 59.4533 214.442 59.84 215.136 60.12C215.829 60.4 217.156 60.7133 219.116 61.06L221.996 61.56C224.382 61.96 226.142 62.6267 227.276 63.56C228.409 64.48 228.976 65.7067 228.976 67.24C228.976 68.6 228.609 69.74 227.876 70.66C227.142 71.5933 226.162 72.34 224.936 72.9C223.722 73.46 222.369 73.86 220.876 74.1C219.382 74.3533 217.876 74.48 216.356 74.48C215.196 74.48 214.049 74.3867 212.916 74.2C211.782 74.0133 210.749 73.72 209.816 73.32C208.896 72.92 208.156 72.3867 207.596 71.72C207.049 71.0667 206.776 70.2733 206.776 69.34C206.776 68.3133 207.189 67.3733 208.016 66.52C208.856 65.68 210.256 64.88 212.216 64.12L213.896 64.8C213.202 65.2533 212.662 65.8333 212.276 66.54C211.902 67.26 211.716 68 211.716 68.76C211.716 69.6133 211.989 70.3133 212.536 70.86C213.082 71.4067 213.796 71.8067 214.676 72.06C215.556 72.3267 216.489 72.46 217.476 72.46C218.502 72.46 219.556 72.3533 220.636 72.14C221.716 71.9267 222.622 71.5933 223.356 71.14C224.102 70.6867 224.476 70.0933 224.476 69.36C224.476 68.8933 224.316 68.48 223.996 68.12C223.676 67.76 223.109 67.4267 222.296 67.12C221.482 66.8267 220.342 66.5467 218.876 66.28L215.596 65.66C213.222 65.2067 211.556 64.6 210.596 63.84C209.636 63.08 209.156 62.1533 209.156 61.06C209.156 60.3133 209.382 59.6267 209.836 59C210.289 58.3733 210.969 57.8467 211.876 57.42C212.796 56.98 213.942 56.6867 215.316 56.54L217.996 57.46ZM217.996 57.46C216.436 57.46 214.969 57.1667 213.596 56.58C212.236 55.98 211.136 55.1267 210.296 54.02C209.456 52.9 209.036 51.56 209.036 50C209.036 48.5867 209.422 47.3267 210.196 46.22C210.982 45.1 212.049 44.22 213.396 43.58C214.756 42.94 216.282 42.62 217.976 42.62C219.602 42.62 221.109 42.9267 222.496 43.54C223.882 44.1533 224.996 45.0067 225.836 46.1C226.689 47.1933 227.116 48.4667 227.116 49.92C227.116 51.1467 226.736 52.34 225.976 53.5C225.216 54.66 224.149 55.6133 222.776 56.36C221.416 57.0933 219.822 57.46 217.996 57.46ZM242.467 64.42C240.054 64.42 238.001 63.9267 236.307 62.94C234.627 61.9533 233.347 60.6333 232.467 58.98C231.601 57.3267 231.167 55.5067 231.167 53.52C231.167 51.52 231.601 49.7 232.467 48.06C233.347 46.4067 234.627 45.0867 236.307 44.1C238.001 43.1133 240.054 42.62 242.467 42.62C244.881 42.62 246.921 43.1133 248.587 44.1C250.267 45.0867 251.547 46.4067 252.427 48.06C253.307 49.7 253.747 51.52 253.747 53.52C253.747 55.5067 253.307 57.3267 252.427 58.98C251.547 60.6333 250.267 61.9533 248.587 62.94C246.921 63.9267 244.881 64.42 242.467 64.42ZM242.467 62.38C243.427 62.38 244.207 62.1 244.807 61.54C245.421 60.9667 245.887 60.2267 246.207 59.32C246.541 58.4133 246.767 57.4533 246.887 56.44C247.021 55.4133 247.087 54.44 247.087 53.52C247.087 52.6133 247.027 51.6467 246.907 50.62C246.787 49.5933 246.561 48.6333 246.227 47.74C245.907 46.8333 245.441 46.1 244.827 45.54C244.227 44.9667 243.441 44.68 242.467 44.68C241.494 44.68 240.701 44.9667 240.087 45.54C239.474 46.1 239.001 46.8333 238.667 47.74C238.347 48.6333 238.127 49.5933 238.007 50.62C237.887 51.6467 237.827 52.6133 237.827 53.52C237.827 54.44 237.887 55.4133 238.007 56.44C238.127 57.4533 238.347 58.4133 238.667 59.32C239.001 60.2267 239.474 60.9667 240.087 61.54C240.701 62.1 241.494 62.38 242.467 62.38Z" fill="#F83758"/>
<defs>
<linearGradient id="paint0_linear_245_8882" x1="124.993" y1="24.9993" x2="24.996" y2="24.9993" gradientUnits="userSpaceOnUse">
<stop stop-color="#CFE2FC"/>
<stop offset="1" stop-color="#4392F9"/>
</linearGradient>
<linearGradient id="paint1_linear_245_8882" x1="-0.000118792" y1="74.9949" x2="99.9971" y2="74.9949" gradientUnits="userSpaceOnUse">
<stop stop-color="#F8BCC6"/>
<stop offset="1" stop-color="#F83758"/>
</linearGradient>
</defs>
</svg>
